<?xml version="1.0" standalone="no"?>
<!DOCTYPE svg PUBLIC "-//W3C//DTD SVG 20010904//EN"
 "http://www.w3.org/TR/2001/REC-SVG-20010904/DTD/svg10.dtd">
<svg version="1.0" xmlns="http://www.w3.org/2000/svg"
 width="512.000000pt" height="512.000000pt" viewBox="0 0 512.000000 512.000000"
 preserveAspectRatio="xMidYMid meet">

<g transform="translate(0.000000,512.000000) scale(0.100000,-0.100000)"
fill="#000000" stroke="none">
<path d="M78 4619 c-23 -12 -46 -35 -58 -59 -20 -39 -20 -51 -18 -2009 l3
-1970 21 -27 c11 -15 33 -37 48 -48 l27 -21 2459 0 2459 0 27 21 c15 11 37 33
48 48 l21 27 3 1970 c2 1959 2 1970 -18 2009 -13 26 -34 47 -60 60 -39 20 -53
20 -2482 20 -2413 -1 -2443 -1 -2480 -21z m4742 -2059 l0 -1780 -2260 0 -2260
0 0 1780 0 1780 2260 0 2260 0 0 -1780z"/>
<path d="M2505 4146 c-17 -7 -43 -28 -58 -45 -93 -111 4 -264 150 -236 45 8
98 61 108 106 16 70 -25 148 -92 175 -40 17 -69 17 -108 0z"/>
<path d="M744 3989 c-46 -13 -91 -69 -99 -121 -3 -24 -5 -230 -3 -458 l3 -415
23 -33 c62 -85 184 -87 247 -4 19 26 20 45 23 477 3 513 5 500 -78 543 -47 24
-67 25 -116 11z"/>
<path d="M2516 3670 c-94 -29 -135 -157 -75 -234 91 -115 280 -42 266 103 -10
94 -103 158 -191 131z"/>
<path d="M2479 3167 c-122 -81 -65 -271 81 -271 146 0 203 190 81 271 -23 16
-49 23 -81 23 -32 0 -58 -7 -81 -23z"/>
<path d="M1525 3011 c-52 -32 -68 -58 -73 -116 -6 -69 20 -115 84 -145 130
-64 263 88 186 213 -40 63 -135 87 -197 48z"/>
<path d="M2494 2696 c-49 -22 -79 -72 -79 -133 0 -85 61 -148 145 -148 84 0
145 63 145 148 0 111 -106 178 -211 133z"/>
<path d="M2488 2209 c-43 -22 -78 -81 -78 -129 0 -50 35 -107 80 -130 21 -11
53 -20 70 -20 76 0 150 74 150 150 0 50 -35 107 -80 130 -49 25 -94 25 -142
-1z"/>
<path d="M4260 2213 c-19 -10 -45 -33 -57 -52 l-23 -34 0 -446 c0 -427 1 -447
20 -479 61 -100 204 -95 258 9 l22 44 -2 437 c-3 423 -4 437 -24 464 -50 68
-129 91 -194 57z"/>
<path d="M2505 1736 c-17 -7 -43 -28 -58 -45 -93 -111 4 -264 150 -236 45 8
98 61 108 106 16 70 -25 148 -92 175 -40 17 -69 17 -108 0z"/>
<path d="M2516 1260 c-94 -29 -135 -157 -75 -234 91 -115 280 -42 266 103 -10
94 -103 158 -191 131z"/>
</g>
</svg>
